<!DOCTYPE svg PUBLIC "-//W3C//DTD SVG 1.1//EN" "http://www.w3.org/Graphics/SVG/1.1/DTD/svg11.dtd">
<svg version="1.1" id="banner-svg" xmlns="http://www.w3.org/2000/svg" xmlns:xlink="http://www.w3.org/1999/xlink" viewBox="0 248 248 78">
	<path class="banner" fill="#BE3527" d="M27.258,295.169L26.193,323.1C50.367,303.52,85.452,291.2,124.5,291.2 c39.049,0,74.134,12.321,98.306,31.899l-1.064-27.931l22.759-9.587c-31.627-22.407-73.749-36.082-120-36.082 c-46.251,0-88.373,13.675-120,36.082L27.258,295.169z"/>
	<path class="letter" fill="#FFFFFF" d="M36.705,277.006c-0.155-0.37,0.004-0.825,0.414-0.995l11.132-4.595c4.468-1.843,9.617,0.238,11.457,4.644 c1.422,3.404,0.295,7.081-2.403,9.714l9.029,7.296c0.461,0.372,0.448,1.071-0.185,1.336l-4.952,2.043 c-0.298,0.123-0.599,0.03-0.735-0.088l-9.05-7.764l-2.569,1.061l3.943,9.438c0.155,0.371-0.042,0.843-0.414,0.996l-4.431,1.828 c-0.41,0.168-0.846-0.04-1.001-0.41L36.705,277.006z M52.39,282.681c1.526-0.629,2.242-2.574,1.593-4.129 c-0.65-1.555-2.479-2.275-4.005-1.645l-5.51,2.275l2.412,5.772L52.39,282.681z"/>
	<path class="letter" fill="#FFFFFF" d="M86.396,260.255c7.935-1.42,15.433,3.795,16.861,11.683s-3.784,15.295-11.72,16.715 c-7.936,1.419-15.379-3.724-16.808-11.61C73.302,269.153,78.461,261.674,86.396,260.255 M90.396,282.343 c4.365-0.78,7.292-4.971,6.514-9.27c-0.785-4.338-5.006-7.288-9.37-6.508c-4.325,0.774-7.246,5.002-6.46,9.34 C81.855,280.205,86.07,283.116,90.396,282.343"/>
	<path class="letter" fill="#FFFFFF" d="M114.477,258.164c-0.234-0.525,0.098-1.041,0.702-1.032l5.361,0.086c0.322,0.005,0.6,0.25,0.678,0.451 l6.417,14.731l0.241,0.004l6.885-14.52c0.083-0.199,0.37-0.437,0.691-0.431l5.362,0.084c0.604,0.011,0.92,0.534,0.669,1.052 l-13.087,26.768c-0.123,0.238-0.368,0.435-0.692,0.429l-0.402-0.005c-0.32-0.006-0.561-0.21-0.676-0.452L114.477,258.164z"/>
	<path class="letter" fill="#FFFFFF" d="M156.892,260.323c0.078-0.396,0.463-0.688,0.897-0.604l16.385,3.154c0.436,0.084,0.683,0.499,0.605,0.892 l-0.834,4.288c-0.077,0.395-0.462,0.688-0.897,0.604l-10.963-2.11l-0.949,4.879l9.023,1.736c0.396,0.078,0.683,0.499,0.605,0.892 l-0.836,4.288c-0.083,0.434-0.502,0.679-0.896,0.603l-9.022-1.737l-1.034,5.312l10.963,2.11c0.436,0.084,0.683,0.5,0.606,0.892 l-0.835,4.288c-0.078,0.396-0.462,0.688-0.897,0.604l-16.384-3.155c-0.437-0.081-0.685-0.498-0.607-0.892L156.892,260.323z"/>
	<path class="letter" fill="#FFFFFF" d="M193.754,269.354c0.153-0.371,0.591-0.58,1-0.412l11.134,4.596c4.469,1.845,6.618,6.941,4.779,11.345 c-1.422,3.405-4.837,5.209-8.619,5.165l1.174,11.507c0.059,0.588-0.448,1.072-1.079,0.812l-4.954-2.044 c-0.297-0.123-0.443-0.398-0.456-0.578l-0.854-11.853l-2.57-1.061l-3.941,9.439c-0.155,0.37-0.631,0.564-1.001,0.412l-4.434-1.83 c-0.408-0.168-0.564-0.626-0.412-0.996L193.754,269.354z M200.779,284.405c1.526,0.631,3.416-0.238,4.066-1.793 c0.649-1.554-0.128-3.352-1.654-3.981l-5.511-2.274l-2.413,5.773L200.779,284.405z"/>
</svg>
