<svg version="1.1" id="rover-logo" xmlns="http://www.w3.org/2000/svg" xmlns:xlink="http://www.w3.org/1999/xlink" viewBox="101.5 247 248 132">
	<path fill="#FFFFFF" d="M227.479,288.36c-33.19,1.838-50.568,23.596-57.424,29.765c-6.857,6.17-9.309,2.711-5.101-3.641 c4.209-6.352,8.022-9.963,13.038-13.896"/>
	<path d="M189.403,299.619c-7.795,5.154-13.445,10.76-17.23,14.521c-1.187,1.181-2.211,2.198-3.049,2.951 c-2.905,2.614-4.461,2.931-4.816,2.877c-0.113-0.33-0.096-1.849,1.804-4.717c2.563-3.867,4.946-6.667,7.567-9.16 c-2.435,1.201-4.827,2.482-7.177,3.844c-0.896,1.157-1.792,2.406-2.705,3.783c-2.508,3.785-2.998,6.913-1.31,8.367 c0.389,0.334,0.992,0.656,1.881,0.656c1.403,0,3.518-0.796,6.616-3.584c0.889-0.801,1.937-1.839,3.149-3.047 c5.179-5.148,13.946-13.85,27.045-19.867C197.133,297.217,193.212,298.34,189.403,299.619"/>
	<path fill="#BE3527" d="M128.258,349.527l-1.065,28.099c24.174-19.696,59.258-32.09,98.307-32.09s74.133,12.394,98.307,32.09 l-1.064-28.099l22.758-9.643c-31.626-22.541-73.749-36.298-120-36.298s-88.374,13.757-120,36.298L128.258,349.527z"/>
	<path fill="#FFFFFF" d="M137.705,331.257c-0.155-0.372,0.005-0.833,0.414-1.002l11.132-4.623c4.468-1.854,9.617,0.24,11.456,4.672 c1.423,3.425,0.295,7.124-2.403,9.772l9.029,7.339c0.461,0.375,0.448,1.079-0.185,1.344l-4.952,2.056 c-0.298,0.123-0.599,0.031-0.736-0.088l-9.048-7.81l-2.569,1.065l3.944,9.495c0.154,0.373-0.042,0.849-0.414,1.003l-4.431,1.839 c-0.41,0.171-0.847-0.04-1.001-0.413L137.705,331.257z M153.39,336.967c1.526-0.633,2.242-2.59,1.592-4.154 s-2.478-2.288-4.005-1.654l-5.511,2.287l2.413,5.81L153.39,336.967z"/>
	<path fill="#FFFFFF" d="M187.396,314.406c7.936-1.427,15.433,3.818,16.861,11.752c1.428,7.938-3.784,15.387-11.72,16.814 c-7.935,1.43-15.379-3.744-16.807-11.678C174.302,323.357,179.462,315.834,187.396,314.406 M191.396,336.627 c4.365-0.787,7.292-5,6.514-9.325c-0.786-4.364-5.006-7.331-9.37-6.546c-4.325,0.779-7.247,5.033-6.461,9.397 C182.857,334.476,187.071,337.404,191.396,336.627"/>
	<path fill="#FFFFFF" d="M215.478,312.303c-0.233-0.527,0.098-1.047,0.701-1.037l5.361,0.084c0.322,0.006,0.601,0.252,0.678,0.455 l6.418,14.819l0.24,0.003l6.885-14.605c0.084-0.2,0.369-0.438,0.692-0.434l5.36,0.085c0.605,0.011,0.92,0.538,0.67,1.06 l-13.088,26.926c-0.123,0.24-0.368,0.438-0.692,0.433l-0.401-0.007c-0.324-0.008-0.562-0.211-0.679-0.455L215.478,312.303z"/>
	<path fill="#FFFFFF" d="M257.893,314.476c0.077-0.397,0.463-0.69,0.898-0.607l16.385,3.173c0.436,0.084,0.684,0.501,0.605,0.898 l-0.834,4.312c-0.077,0.396-0.461,0.692-0.898,0.609l-10.963-2.123l-0.949,4.906l9.024,1.748c0.394,0.077,0.682,0.5,0.606,0.896 l-0.836,4.314c-0.082,0.436-0.5,0.684-0.897,0.607l-9.022-1.748l-1.033,5.345l10.961,2.122c0.436,0.084,0.684,0.501,0.607,0.898 l-0.834,4.312c-0.078,0.397-0.463,0.691-0.898,0.607l-16.385-3.172c-0.436-0.084-0.684-0.5-0.605-0.898L257.893,314.476z"/>
	<path fill="#FFFFFF" d="M294.754,323.559c0.155-0.373,0.591-0.584,1.002-0.414l11.132,4.623c4.47,1.857,6.618,6.984,4.776,11.414 c-1.42,3.426-4.836,5.237-8.615,5.194l1.172,11.575c0.06,0.592-0.447,1.078-1.079,0.816l-4.952-2.057 c-0.299-0.122-0.445-0.4-0.456-0.58l-0.855-11.924l-2.567-1.066l-3.945,9.495c-0.154,0.371-0.629,0.567-1,0.413l-4.434-1.84 c-0.408-0.17-0.566-0.629-0.412-1.001L294.754,323.559z M301.781,338.701c1.525,0.633,3.415-0.24,4.065-1.807 c0.65-1.564-0.128-3.369-1.655-4.004l-5.51-2.288l-2.411,5.81L301.781,338.701z"/>
	<path fill="#FFFFFF" d="M297.483,292.479c-4.044-1.939-7.38-6.225-11.138-10.301c-0.258-0.279,3.735,0.516,6.3-0.962 c2.591-1.493,3.744-5.271,1.362-7.763c-2.703-2.832-5.447-3.542-8.444-0.545c-1.869,1.869-2.011,6.402-2.233,6.191 c-1.022-0.959-2.09-1.863-3.223-2.67c-10.701-7.646-25.027-13.699-51.997-12.205c-23.863,1.321-57.338,14.333-83.369,51.227 c-6.595,9.346-2.642,10.502,3.886,5.185c23.927-19.497,48.762-26.329,70.596-29.038c3.837-0.475,7.467-0.737,10.93-0.791 c7.643,5.134,12.658,12.393,15.404,16.85c4,6.489,9.697,6.143,7.504-2.123c-1.035-3.907-2.198-8.164-5.119-12.803 c5.631,1.428,11.77,4.751,14.877,6.736c-1.69,2.889-3.677,6.81-2.043,7.899c1.603,1.068,4.991-3.984,6.711-5.651 c3.004,1.889,2.384,1.676,3.57,2.582c4.299,3.289,9.5,2.395,10.918,0.748l-0.01-0.004 C295.85,308.904,308.221,297.627,297.483,292.479"/>
	<path d="M302.858,296.512c0.643-0.952,0.96-2.131,0.801-3.359c-0.345-2.686-2.8-4.581-5.485-4.236 c-0.873,0.112-1.66,0.451-2.316,0.943c-2.023-1.495-3.949-3.58-5.936-5.793c1.834-0.095,3.541-0.857,4.827-2.181 c1.351-1.392,2.079-3.224,2.054-5.163c-0.051-3.578-2.735-6.543-6.175-7.066l-7.544-6.693c-3.9-3.256-7.408-0.896-8.427,0.289 c-0.501,0.582-0.438,1.459,0.146,1.96c0.578,0.501,1.455,0.437,1.957-0.146c0.193-0.224,1.965-2.123,4.51,0.003l5.637,5.001 c-1.34,0.525-2.483,1.434-3.298,2.592c-2.028-0.511-3.878-0.253-5.487,0.732c-0.567-0.367-1.155-0.733-1.76-1.099l-5.368-17.819 c-3.077-10.542-16.019-7.422-10.087,3.647c0,0,2.586,5.011,4.691,9.056h0.002c-3.064-1.106-6.486-2.078-10.355-2.838l-5.945-10.145 c-6.424-11.474-20.053-2.936-11.146,6.715l1.663,1.769c-3.639-0.116-7.551-0.079-11.783,0.156 c-9.552,0.528-24.5,3.117-41.464,12.442c-6.135,3.374-11.99,7.33-17.547,11.851c0-0.001,0-0.001,0-0.001 c-2.527,0.605-5.665,1.024-9.29,0.588c-8.66-1.036-12.907-6.096-13.956-5.158c-1.278,1.137,3.11,9.611,10.193,11.428 c1.633,0.418,3.289,0.512,4.914,0.373c-6.204,6.002-11.975,12.775-17.279,20.29c-3.583,5.079-4.512,8.306-2.841,9.866 c0.514,0.478,1.146,0.678,1.844,0.678c2.226,0,5.115-2.029,6.896-3.481c19.817-16.149,42.025-25.279,69.889-28.736 c3.614-0.448,7.055-0.704,10.356-0.767c5.372,3.703,10.266,9.102,14.626,16.174c2.011,3.266,4.597,5.174,6.823,5.174 c0.489,0,0.965-0.092,1.41-0.283c1.064-0.458,3.369-2.162,1.796-8.098c-0.796-3-1.702-6.418-3.567-10.138 c3.652,1.163,7.17,2.687,10.611,4.59c-0.662,0.527-1.29,1.11-1.862,1.756c-5.304,5.97,3.205,12.9,7.886,5.013 c0.459-0.772,0.903-1.446,1.344-2.044c0.469,0.341,0.936,0.69,1.402,1.047c0.266,0.204,0.541,0.396,0.819,0.576 c0.178,0.114,0.361,0.216,0.544,0.321c0.104,0.059,0.204,0.125,0.309,0.182c1.422,0.762,2.975,1.232,4.549,1.378 c0.037,0.003,0.076,0.011,0.113,0.014c0.207,0.017,0.414,0.021,0.621,0.026c0.111,0.004,0.226,0.014,0.337,0.014 c0.034,0,0.07,0,0.103,0c0.266-0.003,0.527-0.017,0.787-0.038c0.079-0.007,0.161-0.017,0.24-0.025 c0.178-0.02,0.353-0.04,0.525-0.067c0.088-0.014,0.174-0.03,0.26-0.045c0.168-0.032,0.33-0.066,0.492-0.105 c0.077-0.02,0.155-0.035,0.23-0.057c0.201-0.055,0.394-0.113,0.582-0.18c0.029-0.012,0.06-0.018,0.089-0.029 c0.214-0.078,0.419-0.164,0.614-0.257c0.056-0.027,0.107-0.056,0.164-0.085c0.137-0.07,0.271-0.142,0.397-0.219 c0.06-0.037,0.118-0.076,0.175-0.113c0.053-0.034,0.109-0.066,0.16-0.104c4.562,1.121,8.833,0.679,12.211-0.471 c0.062-0.02,0.123-0.039,0.185-0.061c0.222-0.079,0.438-0.16,0.651-0.244c0.117-0.045,0.234-0.088,0.346-0.135 c0.163-0.067,0.319-0.139,0.479-0.21c0.107-0.05,0.223-0.095,0.33-0.146c0.008-0.004,0.012-0.009,0.021-0.012 c0.532-0.253,1.033-0.521,1.496-0.805c3.242-1.974,5.025-4.636,4.893-7.305C302.926,296.98,302.9,296.751,302.858,296.512 M289.48,272.346l0.065-0.001c2.435,0,4.442,1.981,4.478,4.418c0.016,1.081-0.354,2.106-1.036,2.927 c-0.021-1.172-0.985-2.109-2.158-2.093c-1.174,0.017-2.114,0.981-2.099,2.157c0.01,0.616,0.283,1.164,0.709,1.547 c-2.389-0.056-4.342-2.011-4.376-4.413C285.028,274.419,287.012,272.38,289.48,272.346 M282.463,275.254 c-0.078,0.363-0.123,0.736-0.148,1.116c-0.456-0.371-0.921-0.731-1.398-1.073c-0.018-0.012-0.035-0.025-0.056-0.039 C281.363,275.161,281.895,275.158,282.463,275.254 M271.55,275.186h0.087c3.281,0,5.988,2.669,6.034,5.952 c0.011,0.626-0.079,1.237-0.255,1.82c-0.37-0.647-1.066-1.087-1.867-1.075c-1.176,0.016-2.115,0.982-2.1,2.157 c0.014,1.029,0.76,1.878,1.735,2.061c-1.005,0.732-2.2,1.142-3.467,1.159h-0.087c-3.281,0-5.988-2.67-6.034-5.953 c-0.009-0.592,0.069-1.172,0.226-1.727c0-0.004,0.003-0.006,0.004-0.011s0.001-0.013,0.003-0.019 c0.271-0.943,0.771-1.812,1.476-2.538C268.428,275.857,269.937,275.209,271.55,275.186 M270.797,272.452 c-2.083,0.195-4.008,1.108-5.484,2.625c-0.709,0.729-1.267,1.562-1.678,2.459l-0.779-0.211l-5.745-9.8 C261.678,268.615,266.266,270.201,270.797,272.452 M261.809,305.09c2.232-5.381,7.1-6.893,8.357-7.245l0.324,0.622 C268.016,299.223,264.588,300.714,261.809,305.09 M277.898,305.111c-0.137,0.008-0.273,0.014-0.414,0.014 c-0.088,0-0.178-0.004-0.266-0.008c-0.14-0.004-0.278-0.01-0.422-0.02c-0.096-0.008-0.192-0.019-0.291-0.03 c-0.141-0.015-0.284-0.034-0.43-0.058c-0.102-0.016-0.205-0.035-0.308-0.056c-0.146-0.028-0.292-0.062-0.439-0.099 c-0.104-0.027-0.212-0.054-0.319-0.085c-0.149-0.044-0.299-0.093-0.45-0.146c-0.107-0.036-0.214-0.072-0.323-0.114 c-0.156-0.062-0.312-0.133-0.471-0.203c-0.102-0.048-0.206-0.092-0.308-0.144c-0.174-0.086-0.347-0.187-0.521-0.286 c-0.087-0.051-0.173-0.095-0.26-0.15c-0.259-0.162-0.521-0.338-0.776-0.534c-0.41-0.313-0.82-0.62-1.229-0.921 c0.507-0.446,1.022-0.809,1.558-1.102c1.365,1.446,2.833,2.311,3.666,2.795c0.318,0.186,0.635,0.357,0.953,0.525 c0.111,0.059,0.223,0.115,0.335,0.171c0.192,0.101,0.389,0.194,0.585,0.286c0.105,0.051,0.212,0.106,0.315,0.155 C278.023,305.106,277.959,305.107,277.898,305.111 M296.6,302.131c-0.513,0.311-1.07,0.594-1.659,0.852 c-0.08,0.035-0.16,0.072-0.241,0.106c-0.27,0.111-0.546,0.218-0.83,0.317c-0.04,0.014-0.078,0.029-0.121,0.044 c-3.801,1.306-8.787,1.466-13.736-0.549c-0.01-0.003-0.018-0.006-0.026-0.011c-0.41-0.166-0.815-0.353-1.222-0.549 c-0.047-0.023-0.094-0.041-0.142-0.064c-0.446-0.22-0.891-0.457-1.333-0.715c-2.601-1.514-5.281-3.68-5.455-8.277 c-0.029-0.768-0.67-1.35-1.44-1.337c-0.767,0.03-1.365,0.675-1.337,1.44c0.031,0.816,0.131,1.571,0.281,2.277 c-1.691,0.552-3.531,1.262-5.285,2.234c-1.133-0.662-2.269-1.287-3.415-1.869c-0.045-0.023-0.093-0.035-0.139-0.053 c-3.771-1.898-7.64-3.371-11.677-4.437c-1.166-1.792-2.58-3.642-4.346-5.538c-0.521-0.561-1.398-0.594-1.964-0.071 c-0.562,0.522-0.593,1.401-0.071,1.964c0.856,0.921,1.618,1.826,2.312,2.719c0.915,1.122,1.527,2.053,2.327,3.365 c2.615,4.324,3.667,8.282,4.629,11.906c0.83,3.124,0.33,4.602-0.208,4.832c-0.671,0.287-2.759-0.529-4.772-3.795 c-3.725-6.047-7.844-10.943-12.321-14.672c-0.899-0.695-2.511-2.02-3.826-2.845c-4.059-2.667-8.385-4.451-12.96-5.335 c-0.754-0.143-1.481,0.35-1.627,1.102c-0.146,0.754,0.348,1.482,1.101,1.627c2.851,0.551,5.599,1.499,8.247,2.812 c-2.046,0.136-4.143,0.335-6.298,0.603c-28.405,3.524-51.062,12.847-71.301,29.339c-2.801,2.281-4.443,2.799-5.018,2.854 c0.02-0.652,0.587-2.533,3.145-6.158c11.801-16.726,25.944-29.691,42.033-38.537c4.374-2.404,8.605-4.345,12.636-5.913 c0.893,1.782,2.835,2.894,4.925,2.626c2.643-0.34,4.511-2.758,4.171-5.402c-0.012-0.084-0.029-0.169-0.043-0.253 c4.696-1.317,8.991-2.134,12.756-2.62c0.011,0.194,0.027,0.391,0.053,0.586c0.597,4.646,4.848,7.932,9.495,7.335 c4.379-0.562,7.543-4.369,7.395-8.694c1.052,0.022,2.105,0.062,3.168,0.117l7.961,8.463l-0.035-0.012 c-4.869-1.461-7.163,2.089-7.635,3.579c-0.232,0.731,0.173,1.512,0.902,1.745c0.732,0.232,1.514-0.172,1.746-0.904 c0.088-0.283,0.969-2.726,4.223-1.748l13.258,3.593c-0.043,0.375-0.07,0.751-0.064,1.134c0.066,4.793,4.021,8.693,8.814,8.693 l0.123-0.002c2.355-0.033,4.555-0.98,6.197-2.67c1.642-1.688,2.528-3.914,2.494-6.27c-0.014-1.111-0.24-2.173-0.635-3.15 c2.738,2.065,5.139,4.734,7.459,7.328c2.293,2.562,4.491,5.015,6.924,6.814c-0.26,0.715-0.366,1.502-0.26,2.311 c0.346,2.685,2.801,4.581,5.483,4.236c0.185-0.024,0.366-0.06,0.542-0.102C299.512,299.786,298.315,301.087,296.6,302.131"/>
	<path d="M146.288,299.611c0.144,0.045,0.289,0.068,0.433,0.068c0.584,0,1.128-0.373,1.32-0.959 c0.238-0.729-0.161-1.513-0.891-1.752c-2.445-0.797-4.91-4.053-6.166-6.74c-0.325-0.696-1.153-0.995-1.846-0.672 c-0.696,0.325-0.996,1.152-0.671,1.847C139.905,294.482,142.815,298.478,146.288,299.611"/>
	<path d="M150.601,297.572c0.178,0.076,0.363,0.112,0.545,0.112c0.54,0,1.053-0.317,1.278-0.845c0.3-0.706-0.027-1.521-0.732-1.822 c-3.566-1.522-6.654-5.469-7.58-8.406c-0.231-0.732-1.011-1.137-1.743-0.908c-0.731,0.231-1.137,1.012-0.906,1.743 C142.561,290.935,146.138,295.668,150.601,297.572"/>
	<path d="M153.798,278.428c1.961,1.432,4.674,2.292,7.177,2.292c0.142,0,0.282-0.003,0.421-0.01c0.767-0.03,1.364-0.676,1.334-1.442 c-0.03-0.766-0.667-1.359-1.443-1.332c-1.994,0.078-4.285-0.609-5.85-1.752c-0.621-0.453-1.489-0.316-1.941,0.303 C153.044,277.105,153.179,277.975,153.798,278.428"/>
	<path d="M160.47,284.88c0.526,0,1.033-0.034,1.514-0.104c0.759-0.112,1.284-0.818,1.171-1.577 c-0.112-0.759-0.815-1.286-1.578-1.171c-2.836,0.418-7.437-0.98-9.29-2.826c-0.543-0.542-1.422-0.54-1.964,0.003 c-0.542,0.544-0.541,1.423,0.003,1.964C152.489,283.324,156.903,284.88,160.47,284.88"/>
	<path d="M292.628,295.934c-0.298,0.037-0.509,0.308-0.472,0.605s0.307,0.51,0.605,0.471c0.298-0.035,0.508-0.307,0.472-0.604 C293.197,296.108,292.926,295.896,292.628,295.934"/>
	<path d="M291.544,298.239c-0.3,0.038-0.51,0.308-0.472,0.606c0.035,0.297,0.306,0.508,0.605,0.471 c0.297-0.037,0.508-0.309,0.471-0.604C292.111,298.414,291.841,298.202,291.544,298.239"/>
	<path d="M293.678,300.133c-0.299,0.037-0.51,0.308-0.473,0.605c0.037,0.297,0.309,0.509,0.606,0.471 c0.297-0.035,0.509-0.307,0.471-0.604C294.246,300.309,293.975,300.096,293.678,300.133"/>
	<path d="M295.91,298.984c-0.298,0.037-0.509,0.309-0.471,0.605c0.037,0.298,0.307,0.51,0.604,0.473 c0.3-0.037,0.51-0.309,0.473-0.605C296.479,299.158,296.209,298.948,295.91,298.984"/>
	<path d="M293.678,297.953c-0.299,0.037-0.51,0.307-0.473,0.605s0.309,0.51,0.606,0.472c0.297-0.037,0.509-0.308,0.471-0.604 C294.246,298.129,293.975,297.916,293.678,297.953"/>
	<path d="M216.254,268.226c-2.947,0.379-5.031,3.076-4.652,6.022c0.379,2.947,3.075,5.03,6.022,4.652 c2.948-0.378,5.031-3.075,4.652-6.022C221.898,269.93,219.201,267.848,216.254,268.226"/>
	<path d="M195.458,275.084c-1.446,0.187-2.468,1.509-2.282,2.956c0.186,1.446,1.508,2.467,2.955,2.282 c1.446-0.187,2.468-1.51,2.283-2.955C198.229,275.92,196.905,274.898,195.458,275.084"/>
</svg>
